<svg width="1024" height="324" viewBox="0 0 1024 324" fill="none" xmlns="http://www.w3.org/2000/svg">
<path d="M106.438 311.181C100.092 310.336 94.6118 309.913 89.9966 309.913C83.9391 309.913 78.0259 310.336 72.2569 311.181C65.911 311.744 60.7189 312.026 56.6806 312.026L49.3251 312.449C47.0175 312.449 45.1425 311.744 43.7003 310.336C42.258 309.209 41.3927 306.814 41.1042 303.151L33.7487 302.729C32.3065 294.276 31.5854 273.991 31.5854 241.873L32.0181 177.214V162L10.3843 162.423L9.95155 153.548L1.73072 153.97L0.432693 93.96H31.1527C31.1527 76.4921 34.9026 60.0104 42.4022 44.5148C49.902 28.7374 62.1611 18.0313 79.1797 12.3965V12.8191C97.0637 6.90258 118.697 3.94434 144.081 3.94434C154.177 3.94434 161.1 4.08519 164.85 4.36697C165.138 5.49393 165.426 6.90262 165.715 8.59306C166.292 10.2835 167.013 11.4104 167.878 11.9739C169.032 12.5374 170.907 12.8191 173.503 12.8191C176.388 20.4261 177.83 29.4417 177.83 39.8661C177.83 46.3461 177.253 54.3756 176.099 63.9548C175.234 69.8713 174.801 74.8017 174.801 78.7461C172.782 78.4643 169.609 78.3235 165.282 78.3235C155.763 78.3235 145.668 79.1687 134.995 80.8591C124.611 82.2678 118.697 83.113 117.255 83.3948C114.082 83.9582 111.63 85.3669 109.9 87.6208C108.169 89.8748 107.159 92.4104 106.871 95.2278H167.013C165.859 99.4539 165.282 102.271 165.282 103.68H175.666C174.224 110.442 173.503 114.386 173.503 115.513C173.503 116.076 173.503 116.499 173.503 116.781C173.792 117.063 173.936 117.626 173.936 118.471V127.346C173.936 131.009 173.647 135.376 173.07 140.447C172.205 150.59 171.772 158.901 171.772 165.381L144.946 163.69C127.639 162.282 114.803 161.577 106.438 161.577V311.181ZM179.52 104.948C183.847 95.9321 192.356 89.1704 205.048 84.6626C218.028 80.1548 232.595 77.9008 248.748 77.9008C251.056 78.1826 256.392 78.3235 264.757 78.3235L275.142 77.9008C286.103 77.9008 296.775 79.5913 307.16 82.9722C317.544 86.353 326.197 91.2834 333.12 97.7634H332.687C333.553 98.8904 334.851 100.44 336.582 102.412C338.312 104.103 339.899 105.37 341.341 106.216L340.908 105.793C348.697 110.864 353.889 121.007 356.485 136.221C359.369 151.435 360.811 170.311 360.811 192.85C360.811 212.854 359.513 233.562 356.917 254.974C354.321 276.386 350.716 289.628 346.1 294.699C340.043 303.151 331.822 308.927 321.438 312.026C311.054 315.125 298.939 316.675 285.093 316.675C270.382 316.675 258.411 316.252 249.181 315.407C240.239 314.562 231.297 312.167 222.355 308.222C213.702 304.56 205.337 298.643 197.26 290.473L193.366 286.669C184.424 278.499 178.366 268.075 175.193 255.396C172.02 242.436 170.434 227.363 170.434 210.177V194.963L170.867 180.595C170.867 177.214 170.722 173.974 170.434 170.875C170.146 167.776 170.001 164.958 170.001 162.423C170.001 150.308 170.29 141.151 170.867 134.953C171.444 128.755 173.607 121.289 177.357 112.555H176.924C177.213 110.864 177.501 109.174 177.789 107.483C178.366 105.793 178.943 104.666 179.52 104.103V104.525L179.087 105.793L179.52 104.948ZM263.459 145.941C283.651 145.941 293.747 160.591 293.747 189.892C293.747 202.007 293.17 211.727 292.016 219.052C290.862 226.096 287.833 231.871 282.93 236.379C278.026 240.887 270.526 243.141 260.431 243.141C251.777 243.141 244.71 241.309 239.229 237.647C233.749 233.984 231.009 228.068 231.009 219.897C231.297 216.235 231.441 209.755 231.441 200.457C231.441 187.497 231.73 177.496 232.307 170.452C233.172 163.127 234.903 158.478 237.499 156.506C243.268 149.463 251.921 145.941 263.459 145.941ZM248.748 168.339C246.441 169.748 244.998 176.228 244.422 187.779C244.133 199.049 243.989 212.713 243.989 228.772C243.989 233.28 245.431 236.097 248.316 237.224C251.2 238.351 255.238 238.915 260.431 238.915C278.026 238.915 286.824 232.998 286.824 221.165C288.555 205.951 289.42 194.963 289.42 188.202C289.42 178.904 288.266 171.72 285.958 166.649C283.939 161.577 279.036 159.042 271.248 159.042C269.517 159.042 266.344 159.323 261.729 159.887H262.161C256.681 161.296 252.498 163.831 249.614 167.494L248.748 168.339ZM553.026 227.082C551.584 246.803 549.997 262.158 548.266 273.146C546.536 283.852 543.795 291.318 540.046 295.544C533.7 304.278 525.19 310.054 514.518 312.871C503.845 315.97 490.865 317.52 475.577 317.52C456.251 317.52 440.386 316.252 427.983 313.716C415.868 311.181 405.193 305.264 395.963 295.967L392.069 292.163C373.896 278.922 364.81 252.156 364.81 211.868V198.767C364.81 182.144 364.378 170.311 363.512 163.268C363.512 152.28 363.945 143.123 364.81 135.798C365.964 128.473 368.416 119.88 372.166 110.019L371.733 110.442C374.329 100.017 382.261 92.1287 395.53 86.7756C409.087 81.4226 424.81 78.7461 442.694 78.7461C445.001 79.0278 450.337 79.1687 458.703 79.1687L469.087 78.7461C482.067 78.7461 494.47 81 506.297 85.5078C518.123 89.7339 527.21 96.2139 533.555 104.948L535.286 106.216C543.074 111.85 548.122 121.289 550.43 134.53C552.737 147.49 553.891 165.663 553.891 189.047C544.661 190.456 537.882 191.16 533.555 191.16C526.344 191.16 517.979 190.596 508.46 189.469C499.23 188.343 493.317 187.638 490.721 187.356C490.432 186.793 490.144 185.807 489.855 184.398C489.567 182.708 488.846 181.581 487.692 181.017C486.538 180.172 484.663 179.468 482.067 178.904C481.202 172.424 479.471 167.635 476.875 164.536C474.279 161.436 469.808 159.887 463.462 159.887C462.308 159.887 459.712 160.169 455.674 160.732H456.106C449.184 162.704 444.568 166.367 442.261 171.72C439.953 177.073 438.799 183.976 438.799 192.428V205.529C438.799 208.628 438.511 213.558 437.934 220.32L437.501 232.153C437.501 235.534 439.088 237.788 442.261 238.915C445.434 239.76 449.616 240.183 454.808 240.183C462.885 240.183 468.798 238.915 472.548 236.379H472.115C473.846 235.534 475.288 233.562 476.442 230.463C477.884 227.082 479.038 223.701 479.904 220.32C480.769 216.657 481.346 214.122 481.634 212.713C488.557 213.276 494.182 213.558 498.509 213.558L511.922 213.136C514.806 212.854 519.133 212.713 524.902 212.713C531.825 212.713 537.161 213.136 540.911 213.981L544.372 218.629L543.94 221.588L549.565 222.433L553.026 227.082ZM666.985 297.657C651.697 305.828 636.553 309.913 621.554 309.913C612.323 309.913 603.093 308.363 593.862 305.264C584.632 302.447 578.43 297.939 575.257 291.741C569.2 286.951 564.873 278.781 562.277 267.229C559.969 255.678 558.816 238.633 558.816 216.094C558.816 205.106 559.104 188.624 559.681 166.649C560.258 145.236 560.546 129.6 560.546 119.739C560.546 108.47 560.258 96.9182 559.681 85.0852C569.777 83.6765 581.603 82.9722 595.16 82.9722H621.986C621.986 86.6348 622.13 89.4521 622.419 91.4243H630.64C631.505 100.158 631.938 117.203 631.938 142.56V163.69C631.938 180.031 632.226 192.709 632.803 201.725C633.38 210.459 635.111 218.207 637.995 224.969C642.034 225.532 644.918 225.814 646.649 225.814C654.725 225.814 660.494 223.278 663.956 218.207C667.706 213.136 669.581 203.697 669.581 189.892C669.581 183.13 669.292 172.424 668.715 157.774C667.85 147.068 667.417 136.08 667.417 124.81C667.417 110.442 668.138 98.8904 669.581 90.1565V85.9304C677.946 83.6765 686.167 82.5495 694.243 82.5495L714.579 82.9722H719.338C723.665 82.9722 727.848 82.6904 731.886 82.1269V91.4243L740.539 90.5791L740.972 170.452C741.549 205.951 741.837 232.857 741.837 251.17C741.837 266.102 741.549 286.247 740.972 311.603C727.127 310.758 720.636 310.336 721.502 310.336C718.906 310.336 714.867 310.758 709.387 311.603C703.906 312.449 696.839 312.871 688.186 312.871C683.57 312.871 680.253 312.308 678.234 311.181C676.503 310.054 675.638 307.8 675.638 304.419C670.734 304.137 667.994 302.447 667.417 299.348L666.985 297.657ZM942.253 165.803C932.157 167.494 921.052 168.339 908.937 168.339C898.841 168.339 887.303 167.212 874.323 164.958L874.756 161.577C874.756 159.887 874.035 158.76 872.592 158.196C871.15 157.351 869.708 156.929 868.265 156.929C866.823 156.647 865.958 156.506 865.669 156.506L866.102 153.125C866.102 148.617 864.66 145.518 861.775 143.828C858.891 141.856 855.141 140.447 850.526 139.602C845.334 141.01 841.295 143.123 838.411 145.941C835.526 148.758 834.084 151.857 834.084 155.238C834.084 160.591 836.969 164.395 842.738 166.649L841.872 166.226C874.179 171.297 899.13 179.468 916.725 190.737C934.321 202.007 943.118 219.897 943.118 244.409C943.118 270.329 934.465 289.205 917.158 301.038C899.851 312.871 877.063 318.788 848.795 318.788C828.603 318.788 810.575 314.984 794.71 307.377C778.846 300.052 766.442 290.05 757.5 277.372C748.847 264.412 744.52 250.325 744.52 235.111V229.195C753.462 228.068 763.269 227.504 773.942 227.504L796.441 227.927C801.056 228.209 807.835 228.349 816.777 228.349C816.777 230.603 817.498 233.421 818.94 236.802H825.43C825.43 246.662 831.921 251.593 844.901 251.593C856.727 251.593 862.641 245.958 862.641 234.689C862.641 230.463 860.333 227.504 855.718 225.814C851.391 223.842 844.324 221.869 834.517 219.897C822.113 217.643 812.594 215.108 805.96 212.29H806.393C788.797 206.374 774.807 196.795 764.423 183.553C754.039 170.029 748.847 156.083 748.847 141.715C748.847 128.473 753.174 115.936 761.827 104.103C770.769 92.2695 782.451 84.24 796.874 80.0139C806.681 77.1965 821.681 75.7878 841.872 75.7878C861.198 75.7878 877.063 77.1965 889.467 80.0139C901.87 82.8313 911.966 89.0295 919.754 98.6087C937.061 112.414 945.714 133.403 945.714 161.577L942.253 165.803ZM957.042 303.151H949.687C948.533 296.108 947.956 287.515 947.956 277.372L948.389 258.355C948.677 255.537 948.821 251.875 948.821 247.367C956.898 243.986 968.148 242.296 982.57 242.296C993.531 242.296 1002.76 243.986 1010.26 247.367L1011.13 253.283C1011.99 253.565 1013.29 253.847 1015.02 254.129C1016.75 254.41 1017.91 255.256 1018.48 256.664C1019.35 257.791 1019.78 259.904 1019.78 263.003C1019.78 268.356 1019.35 276.527 1018.48 287.515C1017.62 298.221 1016.9 306.391 1016.32 312.026L958.34 311.603L957.042 303.151Z" fill="#007AFF"/>
<path d="M106.438 311.181C100.092 310.336 94.6118 309.913 89.9966 309.913C83.9391 309.913 78.0259 310.336 72.2569 311.181C65.911 311.744 60.7189 312.026 56.6806 312.026L49.3251 312.449C47.0175 312.449 45.1425 311.744 43.7003 310.336C42.258 309.209 41.3927 306.814 41.1042 303.151L33.7487 302.729C32.3065 294.276 31.5854 273.991 31.5854 241.873L32.0181 177.214V162L10.3843 162.423L9.95155 153.548L1.73072 153.97L0.432693 93.96H31.1527C31.1527 76.4921 34.9026 60.0104 42.4022 44.5148C49.902 28.7374 62.1611 18.0313 79.1797 12.3965V12.8191C97.0637 6.90258 118.697 3.94434 144.081 3.94434C154.177 3.94434 161.1 4.08519 164.85 4.36697C165.138 5.49393 165.426 6.90262 165.715 8.59306C166.292 10.2835 167.013 11.4104 167.878 11.9739C169.032 12.5374 170.907 12.8191 173.503 12.8191C176.388 20.4261 177.83 29.4417 177.83 39.8661C177.83 46.3461 177.253 54.3756 176.099 63.9548C175.234 69.8713 174.801 74.8017 174.801 78.7461C172.782 78.4643 169.609 78.3235 165.282 78.3235C155.763 78.3235 145.668 79.1687 134.995 80.8591C124.611 82.2678 118.697 83.113 117.255 83.3948C114.082 83.9582 111.63 85.3669 109.9 87.6208C108.169 89.8748 107.159 92.4104 106.871 95.2278H167.013C165.859 99.4539 165.282 102.271 165.282 103.68H175.666C174.224 110.442 173.503 114.386 173.503 115.513C173.503 116.076 173.503 116.499 173.503 116.781C173.792 117.063 173.936 117.626 173.936 118.471V127.346C173.936 131.009 173.647 135.376 173.07 140.447C172.205 150.59 171.772 158.901 171.772 165.381L144.946 163.69C127.639 162.282 114.803 161.577 106.438 161.577V311.181ZM140.187 151.012L158.792 152.28C160.234 138.475 160.955 129.882 160.955 126.501V105.793C160.955 102.412 161.1 100.299 161.388 99.4539H95.1887C94.3234 96.073 93.8907 92.6921 93.8907 89.3113C93.8907 78.0417 98.5059 71.8435 107.736 70.7165C130.524 67.3356 146.677 65.6452 156.196 65.6452H161.821C163.84 50.4313 164.85 39.0209 164.85 31.4139C164.85 22.3983 163.84 14.7913 161.821 8.59306C157.494 8.31132 151.581 8.17045 144.081 8.17045C118.697 8.17045 97.4963 10.9878 80.4777 16.6226C64.3245 21.6939 52.7865 31.1322 45.8637 44.9374C38.9408 58.4609 35.4795 73.393 35.4795 89.7339C35.4795 93.6782 35.6237 96.6365 35.9121 98.6087C32.7392 98.3269 27.8355 98.1861 21.2012 98.1861H4.75943L6.05746 149.744C9.80732 149.463 15.1437 149.322 22.0665 149.322H36.7775C36.7775 159.746 36.6333 169.043 36.3448 177.214L35.9121 244.409C35.9121 273.146 36.489 291.318 37.6428 298.925C39.662 299.207 42.4023 299.348 45.8637 299.348C49.6135 299.348 55.5268 299.066 63.6034 298.502C69.6608 297.657 76.2952 297.235 83.5065 297.235C88.1217 297.235 91.4389 297.376 93.458 297.657V148.899L140.187 151.012ZM179.52 104.948C183.847 95.9321 192.356 89.1704 205.048 84.6626C218.028 80.1548 232.595 77.9008 248.748 77.9008C251.056 78.1826 256.392 78.3235 264.757 78.3235L275.142 77.9008C286.103 77.9008 296.775 79.5913 307.16 82.9722C317.544 86.353 326.197 91.2834 333.12 97.7634H332.687C333.553 98.8904 334.851 100.44 336.582 102.412C338.312 104.103 339.899 105.37 341.341 106.216L340.908 105.793C348.697 110.864 353.889 121.007 356.485 136.221C359.369 151.435 360.811 170.311 360.811 192.85C360.811 212.854 359.513 233.562 356.917 254.974C354.321 276.386 350.716 289.628 346.1 294.699C340.043 303.151 331.822 308.927 321.438 312.026C311.054 315.125 298.939 316.675 285.093 316.675C270.382 316.675 258.411 316.252 249.181 315.407C240.239 314.562 231.297 312.167 222.355 308.222C213.702 304.56 205.337 298.643 197.26 290.473L193.366 286.669C184.424 278.499 178.366 268.075 175.193 255.396C172.02 242.436 170.434 227.363 170.434 210.177V194.963L170.867 180.595C170.867 177.214 170.722 173.974 170.434 170.875C170.146 167.776 170.001 164.958 170.001 162.423C170.001 150.308 170.29 141.151 170.867 134.953C171.444 128.755 173.607 121.289 177.357 112.555H176.924C177.213 110.864 177.501 109.174 177.789 107.483C178.366 105.793 178.943 104.666 179.52 104.103V104.525L179.087 105.793L179.52 104.948ZM174.761 179.749V211.023C174.761 235.816 178.943 256.382 187.308 272.723C195.962 288.782 211.394 298.643 233.605 302.306L253.94 302.729C263.748 303.292 271.392 303.574 276.872 303.574C290.429 303.574 301.967 302.165 311.486 299.348C321.005 296.53 328.505 291.318 333.986 283.711C338.889 278.922 342.062 268.216 343.504 251.593C345.235 234.97 346.677 212.572 347.831 184.398C347.831 181.863 347.543 172.847 346.966 157.351C346.389 141.574 344.658 129.036 341.774 119.739C339.178 110.16 335.284 103.821 330.091 100.722C317.111 88.3252 298.218 82.1269 273.411 82.1269L256.969 82.5495C253.219 82.5495 250.335 82.4087 248.316 82.1269C233.605 82.1269 220.048 84.24 207.644 88.4661C195.241 92.6921 187.164 98.7495 183.414 106.638C180.241 117.626 177.934 127.346 176.491 135.798C175.049 144.25 174.328 152.984 174.328 162L174.761 179.749ZM263.459 145.941C283.651 145.941 293.747 160.591 293.747 189.892C293.747 202.007 293.17 211.727 292.016 219.052C290.862 226.096 287.833 231.871 282.93 236.379C278.026 240.887 270.526 243.141 260.431 243.141C251.777 243.141 244.71 241.309 239.229 237.647C233.749 233.984 231.009 228.068 231.009 219.897C231.297 216.235 231.441 209.755 231.441 200.457C231.441 187.497 231.73 177.496 232.307 170.452C233.172 163.127 234.903 158.478 237.499 156.506C243.268 149.463 251.921 145.941 263.459 145.941ZM248.748 168.339C246.441 169.748 244.998 176.228 244.422 187.779C244.133 199.049 243.989 212.713 243.989 228.772C243.989 233.28 245.431 236.097 248.316 237.224C251.2 238.351 255.238 238.915 260.431 238.915C278.026 238.915 286.824 232.998 286.824 221.165C288.555 205.951 289.42 194.963 289.42 188.202C289.42 178.904 288.266 171.72 285.958 166.649C283.939 161.577 279.036 159.042 271.248 159.042C269.517 159.042 266.344 159.323 261.729 159.887H262.161C256.681 161.296 252.498 163.831 249.614 167.494L248.748 168.339ZM553.026 227.082C551.584 246.803 549.997 262.158 548.266 273.146C546.536 283.852 543.795 291.318 540.046 295.544C533.7 304.278 525.19 310.054 514.518 312.871C503.845 315.97 490.865 317.52 475.577 317.52C456.251 317.52 440.386 316.252 427.983 313.716C415.868 311.181 405.193 305.264 395.963 295.967L392.069 292.163C373.896 278.922 364.81 252.156 364.81 211.868V198.767C364.81 182.144 364.378 170.311 363.512 163.268C363.512 152.28 363.945 143.123 364.81 135.798C365.964 128.473 368.416 119.88 372.166 110.019L371.733 110.442C374.329 100.017 382.261 92.1287 395.53 86.7756C409.087 81.4226 424.81 78.7461 442.694 78.7461C445.001 79.0278 450.337 79.1687 458.703 79.1687L469.087 78.7461C482.067 78.7461 494.47 81 506.297 85.5078C518.123 89.7339 527.21 96.2139 533.555 104.948L535.286 106.216C543.074 111.85 548.122 121.289 550.43 134.53C552.737 147.49 553.891 165.663 553.891 189.047C544.661 190.456 537.882 191.16 533.555 191.16C526.344 191.16 517.979 190.596 508.46 189.469C499.23 188.343 493.317 187.638 490.721 187.356C490.432 186.793 490.144 185.807 489.855 184.398C489.567 182.708 488.846 181.581 487.692 181.017C486.538 180.172 484.663 179.468 482.067 178.904C481.202 172.424 479.471 167.635 476.875 164.536C474.279 161.436 469.808 159.887 463.462 159.887C462.308 159.887 459.712 160.169 455.674 160.732H456.106C449.184 162.704 444.568 166.367 442.261 171.72C439.953 177.073 438.799 183.976 438.799 192.428V205.529C438.799 208.628 438.511 213.558 437.934 220.32L437.501 232.153C437.501 235.534 439.088 237.788 442.261 238.915C445.434 239.76 449.616 240.183 454.808 240.183C462.885 240.183 468.798 238.915 472.548 236.379H472.115C473.846 235.534 475.288 233.562 476.442 230.463C477.884 227.082 479.038 223.701 479.904 220.32C480.769 216.657 481.346 214.122 481.634 212.713C488.557 213.276 494.182 213.558 498.509 213.558L511.922 213.136C514.806 212.854 519.133 212.713 524.902 212.713C531.825 212.713 537.161 213.136 540.911 213.981L544.372 218.629L543.94 221.588L549.565 222.433L553.026 227.082ZM505.864 217.362C502.403 217.643 497.643 217.784 491.586 217.784C488.124 217.784 485.961 217.643 485.096 217.362C483.077 226.941 480.048 233.984 476.01 238.492C472.26 242.718 465.193 244.831 454.808 244.831C446.443 244.831 439.376 243 433.607 239.337C427.838 235.675 424.954 230.181 424.954 222.856V207.642C424.954 192.71 425.531 181.158 426.684 172.988C427.838 164.817 430.579 158.478 434.905 153.97C439.521 149.181 446.588 146.786 456.106 146.786C464.183 146.786 470.817 149.322 476.01 154.393C481.202 159.464 484.519 166.367 485.961 175.101C500.961 177.636 513.941 178.904 524.902 178.904C531.825 178.904 537.161 178.341 540.911 177.214C540.911 174.396 540.623 165.944 540.046 151.857C539.757 137.489 538.171 126.36 535.286 118.471C532.69 110.583 528.94 104.807 524.037 101.144C517.402 94.9461 509.037 90.4382 498.941 87.6208C489.134 84.5217 478.606 82.9722 467.356 82.9722L450.914 83.3948C447.165 83.3948 444.28 83.2539 442.261 82.9722C422.935 82.9722 407.934 85.6487 397.261 91.0017C386.588 96.073 378.944 104.384 374.329 115.936C370.002 127.205 367.839 142.842 367.839 162.845C368.704 170.452 369.137 178.482 369.137 186.934L368.704 211.023C368.704 236.097 372.743 256.805 380.819 273.146C389.184 289.487 404.761 299.489 427.55 303.151L447.886 303.574C457.693 304.137 465.337 304.419 470.817 304.419C484.375 304.419 495.913 303.01 505.432 300.193C514.95 297.376 522.45 292.163 527.931 284.556C531.392 281.176 533.844 274.132 535.286 263.426C537.017 252.72 538.603 237.647 540.046 218.207C536.007 217.362 530.527 216.939 523.604 216.939L505.864 217.362ZM666.985 297.657C651.697 305.828 636.553 309.913 621.554 309.913C612.323 309.913 603.093 308.363 593.862 305.264C584.632 302.447 578.43 297.939 575.257 291.741C569.2 286.951 564.873 278.781 562.277 267.229C559.969 255.678 558.816 238.633 558.816 216.094C558.816 205.106 559.104 188.624 559.681 166.649C560.258 145.236 560.546 129.6 560.546 119.739C560.546 108.47 560.258 96.9182 559.681 85.0852C569.777 83.6765 581.603 82.9722 595.16 82.9722H621.986C621.986 86.6348 622.13 89.4521 622.419 91.4243H630.64C631.505 100.158 631.938 117.203 631.938 142.56V163.69C631.938 180.031 632.226 192.709 632.803 201.725C633.38 210.459 635.111 218.207 637.995 224.969C642.034 225.532 644.918 225.814 646.649 225.814C654.725 225.814 660.494 223.278 663.956 218.207C667.706 213.136 669.581 203.697 669.581 189.892C669.581 183.13 669.292 172.424 668.715 157.774C667.85 147.068 667.417 136.08 667.417 124.81C667.417 110.442 668.138 98.8904 669.581 90.1565V85.9304C677.946 83.6765 686.167 82.5495 694.243 82.5495L714.579 82.9722H719.338C723.665 82.9722 727.848 82.6904 731.886 82.1269V91.4243L740.539 90.5791L740.972 170.452C741.549 205.951 741.837 232.857 741.837 251.17C741.837 266.102 741.549 286.247 740.972 311.603C727.127 310.758 720.636 310.336 721.502 310.336C718.906 310.336 714.867 310.758 709.387 311.603C703.906 312.449 696.839 312.871 688.186 312.871C683.57 312.871 680.253 312.308 678.234 311.181C676.503 310.054 675.638 307.8 675.638 304.419C670.734 304.137 667.994 302.447 667.417 299.348L666.985 297.657ZM676.503 300.616C684.868 300.616 694.099 299.911 704.195 298.502C708.81 297.939 711.694 297.657 712.848 297.657C713.714 297.657 718.761 297.939 727.992 298.502C728.569 269.202 728.857 247.789 728.857 234.266C728.857 217.08 728.569 192.146 727.992 159.464L727.559 86.7756C724.098 87.0574 719.483 87.1982 713.714 87.1982L692.512 86.7756C686.743 86.7756 680.542 87.6208 673.907 89.3113V91.0017C672.465 99.7356 671.744 110.442 671.744 123.12C671.744 130.163 672.032 141.01 672.609 155.661C673.475 166.649 673.907 177.636 673.907 188.624C673.907 204.402 671.6 215.249 666.985 221.165C662.658 227.082 655.879 230.04 646.649 230.04C638.572 230.04 632.659 228.068 628.909 224.123C625.159 219.897 622.852 215.108 621.986 209.755C621.121 204.402 620.4 196.231 619.823 185.243C619.246 181.017 618.958 174.256 618.958 164.958V150.59V118.894V105.37C618.958 96.9182 618.669 90.8608 618.092 87.1982L592.997 86.7756C582.613 86.7756 572.95 87.48 564.008 88.8887C564.296 94.2417 564.44 103.116 564.44 115.513C564.44 125.092 564.152 141.151 563.575 163.69C562.998 186.229 562.71 203.134 562.71 214.403C562.71 255.256 566.171 278.499 573.094 284.134C582.901 292.868 596.17 297.235 612.9 297.235C623.573 297.235 632.659 295.685 640.159 292.586C647.658 289.487 657.898 284.134 670.879 276.527L670.446 286.669C670.446 295.967 672.465 300.616 676.503 300.616ZM942.253 165.803C932.157 167.494 921.052 168.339 908.937 168.339C898.841 168.339 887.303 167.212 874.323 164.958L874.756 161.577C874.756 159.887 874.035 158.76 872.592 158.196C871.15 157.351 869.708 156.929 868.265 156.929C866.823 156.647 865.958 156.506 865.669 156.506L866.102 153.125C866.102 148.617 864.66 145.518 861.775 143.828C858.891 141.856 855.141 140.447 850.526 139.602C845.334 141.01 841.295 143.123 838.411 145.941C835.526 148.758 834.084 151.857 834.084 155.238C834.084 160.591 836.969 164.395 842.738 166.649L841.872 166.226C874.179 171.297 899.13 179.468 916.725 190.737C934.321 202.007 943.118 219.897 943.118 244.409C943.118 270.329 934.465 289.205 917.158 301.038C899.851 312.871 877.063 318.788 848.795 318.788C828.603 318.788 810.575 314.984 794.71 307.377C778.846 300.052 766.442 290.05 757.5 277.372C748.847 264.412 744.52 250.325 744.52 235.111V229.195C753.462 228.068 763.269 227.504 773.942 227.504L796.441 227.927C801.056 228.209 807.835 228.349 816.777 228.349C816.777 230.603 817.498 233.421 818.94 236.802H825.43C825.43 246.662 831.921 251.593 844.901 251.593C856.727 251.593 862.641 245.958 862.641 234.689C862.641 230.463 860.333 227.504 855.718 225.814C851.391 223.842 844.324 221.869 834.517 219.897C822.113 217.643 812.594 215.108 805.96 212.29H806.393C788.797 206.374 774.807 196.795 764.423 183.553C754.039 170.029 748.847 156.083 748.847 141.715C748.847 128.473 753.174 115.936 761.827 104.103C770.769 92.2695 782.451 84.24 796.874 80.0139C806.681 77.1965 821.681 75.7878 841.872 75.7878C861.198 75.7878 877.063 77.1965 889.467 80.0139C901.87 82.8313 911.966 89.0295 919.754 98.6087C937.061 112.414 945.714 133.403 945.714 161.577L942.253 165.803ZM895.091 85.0852C879.515 81.7043 861.775 80.0139 841.872 80.0139C782.74 80.0139 753.174 100.581 753.174 141.715C753.174 154.393 757.068 166.085 764.856 176.791C772.644 187.216 784.038 194.963 799.037 200.035C805.96 203.134 816.921 206.092 831.921 208.909C844.324 211.727 853.266 214.544 858.747 217.362C864.227 220.179 866.967 224.969 866.967 231.73C866.967 240.183 865.092 246.381 861.343 250.325C857.593 253.988 852.112 255.819 844.901 255.819C836.824 255.819 829.613 253.706 823.267 249.48C816.921 245.254 813.46 239.619 812.883 232.576L763.125 232.153C756.491 232.153 751.731 232.435 748.847 232.998V235.111C748.847 256.805 757.212 274.132 773.942 287.092C790.672 299.77 812.739 306.109 840.141 306.109C866.39 306.109 887.88 300.897 904.61 290.473C921.34 279.767 929.705 261.595 929.705 235.956C929.705 221.306 926.244 209.614 919.321 200.88C912.398 192.146 902.735 185.666 890.332 181.44C878.217 177.214 861.92 173.551 841.44 170.452C834.805 168.198 829.757 164.958 826.296 160.732C822.834 156.506 821.104 151.998 821.104 147.209C821.104 142.419 822.979 137.911 826.729 133.685C830.767 129.177 836.247 126.923 843.17 126.923C849.805 126.923 856.151 129.318 862.208 134.108C868.265 138.897 871.294 144.11 871.294 149.744C871.294 151.435 871.15 152.562 870.862 153.125C879.803 154.816 889.611 155.661 900.283 155.661C912.11 155.661 922.927 154.816 932.734 153.125C932.734 137.066 929.705 123.12 923.648 111.287C917.59 99.1721 908.072 90.4382 895.091 85.0852ZM957.042 303.151H949.687C948.533 296.108 947.956 287.515 947.956 277.372L948.389 258.355C948.677 255.537 948.821 251.875 948.821 247.367C956.898 243.986 968.148 242.296 982.57 242.296C993.531 242.296 1002.76 243.986 1010.26 247.367L1011.13 253.283C1011.99 253.565 1013.29 253.847 1015.02 254.129C1016.75 254.41 1017.91 255.256 1018.48 256.664C1019.35 257.791 1019.78 259.904 1019.78 263.003C1019.78 268.356 1019.35 276.527 1018.48 287.515C1017.62 298.221 1016.9 306.391 1016.32 312.026L958.34 311.603L957.042 303.151ZM1004.64 298.502C1004.64 294.558 1005.07 285.683 1005.93 271.878C1006.8 258.073 1007.23 250.466 1007.23 249.057C1003.48 247.367 995.262 246.522 982.57 246.522C967.859 246.522 958.052 247.649 953.148 249.903C953.148 253.283 953.004 256.242 952.716 258.777L952.283 279.485C952.283 289.346 952.716 295.826 953.581 298.925L954.879 299.348H1004.64V298.502Z" fill="black"/>
<path d="M246.419 169.848L253.218 163.409C257.545 159.311 273.41 157.17 281.445 161.195C287.874 164.415 289.756 178.233 289.893 184.74L287.214 220.36C287.352 222.305 286.72 227.484 283.094 232.636C264.303 245.032 249.441 238.606 244.359 233.843C244.359 233.843 243.878 186.954 246.419 169.848Z" fill="#FF9442"/>
</svg>
